<svg xmlns="http://www.w3.org/2000/svg" width="32" height="32" viewBox="0 0 32 32">
  <g id="Group_10413" data-name="Group 10413" transform="translate(15310 10574)">
    <rect id="Rectangle_5815" data-name="Rectangle 5815" width="32" height="32" transform="translate(-15310 -10574)" fill="none"/>
    <g id="Group_10412" data-name="Group 10412" transform="translate(335 51)">
      <path id="Exclusion_6" data-name="Exclusion 6" d="M4.1,8.2A4.1,4.1,0,1,1,8.2,4.1,4.106,4.106,0,0,1,4.1,8.2Zm.149-6.446V2.875A2.624,2.624,0,0,0,1.758,5.492v.975l.349-.812a2.548,2.548,0,0,1,2.144-1.4V5.369L6.464,3.56Z" transform="translate(-15630.758 -10619)"/>
      <path id="Path_9548" data-name="Path 9548" d="M169.516,422.76a1.758,1.758,0,1,0-3.516,0,1.758,1.758,0,1,0,3.516,0Z" transform="translate(-15798.516 -11023.596)"/>
      <path id="Path_9549" data-name="Path 9549" d="M349.516,422.76a1.758,1.758,0,0,0-3.516,0,1.758,1.758,0,1,0,3.516,0Z" transform="translate(-15971.484 -11023.596)"/>
      <path id="Path_9551" data-name="Path 9551" d="M.586,92.174H3.109l2.81,10.118a.586.586,0,0,0,.565.429H17.031a.586.586,0,0,0,.564-.425l2.383-8.2a.586.586,0,0,0-.564-.747H17.293a5.242,5.242,0,0,1-9.9,0H4.651l-.532-1.915A.586.586,0,0,0,3.555,91H.586a.586.586,0,0,0,0,1.172Zm14.1,9.375H8.828a.586.586,0,0,1,0-1.172h5.859a.586.586,0,1,1,0,1.172ZM7.656,98.033h8.2a.586.586,0,0,1,0,1.172h-8.2a.586.586,0,0,1,0-1.172Z" transform="translate(-15639 -10706.486)"/>
    </g>
  </g>
</svg>
